PathFileType	4	(X/Y/Z)	 s04c0201.trc
DataRate	CameraRate	NumFrames	NumMarkers	Units	OrigDataRate	OrigDataStartFrame	OrigNumFrames
200	200	6	51	mm	200	251	2000
Frame#	Time	racr			lacr			c7			jug			rlel			rdr			llel			ldr			s2			lic			ric			lasi			rasi			rpsi			lpsi			rgt			lgt			rth1			rth2			rth3			rth4			rlfc			rmfc			rsh1			rsh2			rsh3			rsh4			rlmal			rmmal			rcal			rtoe			rmt5			lth1			lth2			lth4			lth3			llfc			lmfc			lsh1			lsh2			lsh3			lsh4			llmal			lmmal			lcal			ltoe			lmt1			lmt5			SBIKE			LBIKE			RBIKE			
		X1	Y1	Z1	X2	Y2	Z2	X3	Y3	Z3	X4	Y4	Z4	X5	Y5	Z5	X6	Y6	Z6	X7	Y7	Z7	X8	Y8	Z8	X9	Y9	Z9	X10	Y10	Z10	X11	Y11	Z11	X12	Y12	Z12	X13	Y13	Z13	X14	Y14	Z14	X15	Y15	Z15	X16	Y16	Z16	X17	Y17	Z17	X18	Y18	Z18	X19	Y19	Z19	X20	Y20	Z20	X21	Y21	Z21	X22	Y22	Z22	X23	Y23	Z23	X24	Y24	Z24	X25	Y25	Z25	X26	Y26	Z26	X27	Y27	Z27	X28	Y28	Z28	X29	Y29	Z29	X30	Y30	Z30	X31	Y31	Z31	X32	Y32	Z32	X33	Y33	Z33	X34	Y34	Z34	X35	Y35	Z35	X36	Y36	Z36	X37	Y37	Z37	X38	Y38	Z38	X39	Y39	Z39	X40	Y40	Z40	X41	Y41	Z41	X42	Y42	Z42	X43	Y43	Z43	X44	Y44	Z44	X45	Y45	Z45	X46	Y46	Z46	X47	Y47	Z47	X48	Y48	Z48	X49	Y49	Z49	X50	Y50	Z50	X51	Y51	Z51	
251	1.2550	466.315621	1475.699260	-102.043647	477.037534	1476.425284	-399.286791	441.816992	1530.504639	-257.650878	469.564552	1382.237933	-255.262457	518.000204	1173.546331	4.480343	692.008168	941.707880	-63.848745	520.417863	1198.289279	-509.345770	648.870072	846.510970	-473.617036	-66.170123	1184.647056	-277.979546	103.065033	1196.380957	-422.488199	89.088595	1179.287509	-110.868668	132.585262	1146.463851	-378.234027	133.832003	1127.129951	-154.659115	-36.831271	1225.153998	-230.314304	-38.177818	1230.791512	-307.469945	34.471967	1119.546911	-98.594410	53.345065	1126.172434	-469.210655	117.311927	973.744135	-72.862690	178.302313	909.504193	-77.952436	201.543817	827.247483	-81.345405	207.150268	927.233089	-93.729161	257.171612	692.251537	-104.801751	240.566467	675.785837	-217.685384	194.440692	575.960493	-84.148133	181.232965	490.968828	-102.072755	123.120961	427.626849	-112.559920	211.047679	482.109121	-125.579263	68.835059	287.898853	-128.314980	95.758058	293.483083	-211.178028	-2.791189	278.004519	-171.052959	276.362623	169.502579	-149.913684	203.223864	167.548308	-97.627581	116.202914	1075.963854	-480.512988	201.796705	1069.398069	-488.857668	215.179758	1101.039644	-474.565852	274.646901	1019.383691	-502.013407	416.651087	939.579847	-488.389452	457.637248	925.366889	-380.742664	379.776212	829.569056	-501.690869	357.365433	749.828137	-472.683578	295.215298	686.871192	-462.504940	382.560082	742.795302	-443.630842	216.063814	567.823371	-439.372318	216.060404	576.912167	-351.389357	133.257436	554.986437	-392.312414	430.166383	506.052977	-402.466765	359.470530	492.081046	-350.589732	355.057206	477.225505	-462.579809	-179.331889	939.284612	-278.885038	-4.095604	85.737548	-483.779272	-15.888552	80.478359	-83.234665	
252	1.2600	466.289486	1475.670108	-102.023217	477.024518	1476.414467	-399.226545	441.796898	1530.496940	-257.619258	469.528402	1382.222041	-255.219677	517.969406	1173.517639	4.488859	692.024247	941.696849	-63.824015	520.422806	1198.288978	-509.309397	648.926607	846.475379	-473.676234	-66.192566	1184.634223	-277.996090	103.049869	1196.380886	-422.458681	89.041909	1179.294646	-110.884002	132.563950	1146.450904	-378.252049	133.777082	1127.148507	-154.669804	-36.845290	1225.145395	-230.345416	-38.211954	1230.796909	-307.492681	34.429633	1119.567919	-98.587444	53.306549	1126.168262	-469.209597	117.257189	973.752161	-72.875627	178.264812	909.541775	-77.967112	201.530263	827.281153	-81.339017	207.118902	927.273195	-93.735850	257.169445	692.280306	-104.782821	240.565288	675.847241	-217.663318	194.466201	575.975375	-84.127080	181.270269	490.988413	-102.052120	123.170199	427.644834	-112.538737	211.064563	482.150220	-125.569296	68.896036	287.905224	-128.309847	95.805836	293.508045	-211.166872	-2.733440	278.059496	-171.056054	276.394884	169.459375	-149.899742	203.261631	167.525627	-97.631753	116.163737	1075.973475	-480.546240	201.746191	1069.397630	-488.911015	215.139388	1101.034791	-474.615007	274.598400	1019.384752	-502.061978	416.591946	939.589308	-488.472714	457.594850	925.422156	-380.761544	379.752320	829.553375	-501.751835	357.349898	749.842214	-472.720137	295.188938	686.885114	-462.537704	382.538943	742.791964	-443.674740	216.035306	567.866083	-439.410818	216.030894	576.948017	-351.398774	133.218068	555.000574	-392.318477	430.130270	506.059415	-402.467060	359.423083	492.083742	-350.593454	355.030213	477.225490	-462.578349	-179.331414	939.294694	-278.876647	-4.094175	85.730151	-483.782713	-15.872349	80.471940	-83.228834	
253	1.2650	466.268109	1475.657629	-101.972389	477.064830	1476.409675	-399.216933	441.791056	1530.489006	-257.586185	469.516769	1382.210371	-255.215339	517.918547	1173.481375	4.480561	692.029689	941.692440	-63.841098	520.408314	1198.285156	-509.278718	648.928237	846.463108	-473.680382	-66.228688	1184.643677	-278.025142	103.023741	1196.374287	-422.446104	88.992036	1179.304291	-110.889420	132.563892	1146.451310	-378.252222	133.743172	1127.180833	-154.658958	-36.896576	1225.175854	-230.362252	-38.230328	1230.797153	-307.534311	34.362571	1119.581908	-98.597793	53.279083	1126.164193	-469.193727	117.203777	973.775263	-72.863689	178.234789	909.580820	-77.953953	201.510345	827.330817	-81.319614	207.093599	927.310014	-93.733184	257.184720	692.333044	-104.760325	240.588127	675.889748	-217.644142	194.480569	576.008488	-84.110086	181.312154	491.022855	-102.026628	123.220694	427.674761	-112.535682	211.103166	482.184786	-125.542526	68.948879	287.911840	-128.306013	95.894951	293.521335	-211.157776	-2.656410	278.074415	-171.051616	276.443830	169.417866	-149.906292	203.305673	167.500875	-97.628739	116.121470	1075.987560	-480.578729	201.699178	1069.396555	-488.955005	215.104533	1101.049385	-474.675162	274.534239	1019.389905	-502.134818	416.555786	939.587547	-488.546180	457.588585	925.443398	-380.844175	379.726446	829.533538	-501.833816	357.319019	749.831834	-472.772760	295.167272	686.883735	-462.574675	382.501438	742.807419	-443.707876	216.025873	567.879874	-439.424118	216.009803	576.970603	-351.414994	133.199678	555.028495	-392.330589	430.101366	506.083233	-402.486512	359.408209	492.110935	-350.618408	355.000339	477.248904	-462.603331	-179.333297	939.286698	-278.873021	-4.109398	85.738473	-483.779000	-15.891276	80.472182	-83.237029	
254	1.2700	466.230230	1475.611176	-101.938312	477.064896	1476.391591	-399.216747	441.754095	1530.485568	-257.575375	469.475952	1382.216327	-255.228398	517.848739	1173.410286	4.469690	692.032127	941.675107	-63.832845	520.416265	1198.269859	-509.253205	648.885922	846.498006	-473.585957	-66.282802	1184.639438	-278.036719	103.024865	1196.366612	-422.447177	88.954437	1179.296715	-110.908982	132.540842	1146.444214	-378.264001	133.689574	1127.203657	-154.662780	-36.949286	1225.167863	-230.402860	-38.265093	1230.798905	-307.557397	34.318035	1119.597774	-98.610284	53.263823	1126.172087	-469.199843	117.158832	973.776052	-72.865395	178.193347	909.630757	-77.940803	201.503016	827.349941	-81.306809	207.050537	927.361258	-93.738550	257.197326	692.366731	-104.730407	240.619549	675.940840	-217.625417	194.479972	576.061768	-84.097778	181.338336	491.034003	-102.025965	123.258347	427.691537	-112.514186	211.144648	482.216935	-125.526148	69.001261	287.928837	-128.307987	95.964676	293.508692	-211.167562	-2.577218	278.127819	-171.060177	276.477801	169.367788	-149.909694	203.335898	167.490550	-97.624837	116.057477	1075.977508	-480.594667	201.655871	1069.391167	-489.011702	215.056752	1101.039943	-474.730858	274.487627	1019.376242	-502.184075	416.509531	939.589127	-488.635097	457.545716	925.452781	-380.917486	379.705727	829.525154	-501.904009	357.299570	749.835857	-472.803753	295.172168	686.872899	-462.591747	382.481518	742.805676	-443.737238	216.002181	567.876672	-439.431572	215.997147	576.970397	-351.433222	133.185505	555.033243	-392.333386	430.084439	506.086309	-402.486631	359.388515	492.113787	-350.599995	354.985517	477.230520	-462.590459	-179.334406	939.283048	-278.875605	-4.092390	85.733673	-483.781602	-15.897183	80.475397	-83.240834	
255	1.2750	466.191718	1475.569424	-101.913640	477.055069	1476.370204	-399.187797	441.724214	1530.470487	-257.525758	469.432905	1382.197860	-255.191818	517.802428	1173.360340	4.453943	692.043441	941.681811	-63.829620	520.383896	1198.255997	-509.243848	648.843152	846.515753	-473.591489	-66.315346	1184.657230	-278.080277	103.020313	1196.367058	-422.455722	88.880444	1179.320630	-110.896395	132.506367	1146.445241	-378.231822	133.645578	1127.215549	-154.668145	-36.984068	1225.183593	-230.457779	-38.300959	1230.811136	-307.601015	34.246789	1119.621123	-98.620489	53.243203	1126.188998	-469.196284	117.100402	973.810515	-72.837927	178.150097	909.647607	-77.942682	201.497159	827.401992	-81.282597	207.017844	927.400477	-93.713140	257.216597	692.399963	-104.706318	240.665186	675.980949	-217.600631	194.460589	576.137150	-84.090783	181.380082	491.066298	-102.002553	123.295831	427.707910	-112.504933	211.182735	482.257865	-125.498286	69.053943	287.948217	-128.302676	96.007332	293.526683	-211.151778	-2.522375	278.165317	-171.053713	276.488951	169.348650	-149.897142	203.336730	167.456568	-97.634587	116.012754	1075.988572	-480.618802	201.599845	1069.389993	-489.063697	215.013530	1101.043743	-474.798604	274.431950	1019.367884	-502.256755	416.469573	939.586496	-488.703535	457.522516	925.542464	-380.996218	379.699039	829.518223	-501.959295	357.292284	749.824447	-472.843358	295.152110	686.882058	-462.638771	382.471408	742.814461	-443.794091	215.983139	567.870874	-439.446831	215.973321	576.986902	-351.452509	133.174210	555.041267	-392.349499	430.067087	506.100166	-402.493348	359.375606	492.131023	-350.586676	354.959072	477.246026	-462.611700	-179.339641	939.283572	-278.878152	-4.093492	85.752439	-483.786460	-15.890173	80.461490	-83.240300	
256	1.2800	466.149377	1475.523840	-101.884727	477.040464	1476.356400	-399.171259	441.697788	1530.446774	-257.501927	469.396993	1382.190142	-255.162266	517.745047	1173.310871	4.462260	692.045833	941.676748	-63.849813	520.359062	1198.242718	-509.224765	648.854700	846.524894	-473.600018	-66.359529	1184.649036	-278.108928	102.996821	1196.379792	-422.447923	88.812858	1179.383515	-110.901394	132.496357	1146.437207	-378.233642	133.607223	1127.234899	-154.658924	-36.989544	1225.125432	-230.560202	-38.318913	1230.825362	-307.653132	34.194931	1119.645635	-98.649706	53.202024	1126.190141	-469.186358	117.082420	973.825574	-72.809393	178.112619	909.690206	-77.941365	201.487262	827.443195	-81.268200	207.016268	927.437227	-93.705098	257.240250	692.433509	-104.689310	240.719690	676.010281	-217.585841	194.418597	576.236567	-84.089728	181.412822	491.111175	-101.972245	123.337012	427.736825	-112.494910	211.218359	482.254626	-125.482380	69.114444	287.970806	-128.285235	96.058674	293.557395	-211.148359	-2.468470	278.210070	-171.068735	276.523835	169.305811	-149.901734	203.368217	167.461943	-97.626541	115.951808	1075.965080	-480.635304	201.554084	1069.398877	-489.123865	214.958540	1101.036307	-474.842102	274.379191	1019.360243	-502.324846	416.435926	939.583084	-488.770012	457.488532	925.562543	-381.049550	379.686405	829.503483	-502.017129	357.273036	749.828502	-472.873572	295.130520	686.875819	-462.675773	382.442995	742.828072	-443.810317	215.976019	567.865833	-439.446239	215.938838	576.988681	-351.464904	133.158799	555.041302	-392.345697	430.057927	506.104149	-402.488234	359.365293	492.133371	-350.584988	354.963308	477.232542	-462.591998	-179.338631	939.291095	-278.867662	-4.103672	85.747690	-483.784567	-15.885701	80.472505	-83.245516	
